    <svg display="none" xmlns="http://www.w3.org/2000/svg">

        <symbol id="mail" viewBox="0 0 16 12">
            <path d="M14.5 0H1.50001C0.672854 0 0 0.672853 0 1.50001V10.5C0 11.3271 0.672854 12 1.50001 12H14.5C15.3271 12 16 11.3271 16 10.5V1.50001C16 0.672853 15.3271 0 14.5 0V0ZM14.5 0.999994C14.5679 0.999994 14.6325 1.01409 14.6916 1.0387L8 6.83838L1.30833 1.0387C1.36742 1.01412 1.43204 0.999994 1.49998 0.999994H14.5ZM14.5 11H1.50001C1.22414 11 0.999996 10.7759 0.999996 10.5V2.09521L7.67236 7.87792C7.76661 7.95944 7.8833 7.99999 8 7.99999C8.1167 7.99999 8.23339 7.95948 8.32764 7.87792L15 2.09521V10.5C15 10.7759 14.7759 11 14.5 11V11Z" />
        </symbol>

        <symbol id="phone" viewBox="0 0 10 16" >
            <path d="M8.5 0C9.32715 0 10 0.672848 10 1.5V14.5C10 15.3272 9.32715 16 8.5 16H1.5C0.672848 16 0 15.3272 0 14.5V1.5C0 0.672848 0.672848 0 1.5 0H8.5ZM1 13V14.5C1 14.7759 1.22412 15 1.5 15H8.5C8.77588 15 9 14.7759 9 14.5V13H1ZM1.64648 13.7393C1.84175 13.5569 2.15825 13.5569 2.35352 13.7393C2.54864 13.9216 2.54873 14.2171 2.35352 14.3994C2.15828 14.5816 1.84172 14.5816 1.64648 14.3994C1.45127 14.2171 1.45136 13.9216 1.64648 13.7393ZM1.5 1C1.22412 1 1 1.22412 1 1.5V12H9V1.5C9 1.22412 8.77588 1 8.5 1H1.5Z"/>
        </symbol>

        </svg>
