    <svg display="none" xmlns="http://www.w3.org/2000/svg">

        <symbol id="mail" viewBox="0 0 16 12">
            <path d="M14.5 0H1.50001C0.672854 0 0 0.672853 0 1.50001V10.5C0 11.3271 0.672854 12 1.50001 12H14.5C15.3271 12 16 11.3271 16 10.5V1.50001C16 0.672853 15.3271 0 14.5 0V0ZM14.5 0.999994C14.5679 0.999994 14.6325 1.01409 14.6916 1.0387L8 6.83838L1.30833 1.0387C1.36742 1.01412 1.43204 0.999994 1.49998 0.999994H14.5ZM14.5 11H1.50001C1.22414 11 0.999996 10.7759 0.999996 10.5V2.09521L7.67236 7.87792C7.76661 7.95944 7.8833 7.99999 8 7.99999C8.1167 7.99999 8.23339 7.95948 8.32764 7.87792L15 2.09521V10.5C15 10.7759 14.7759 11 14.5 11V11Z" />
        </symbol>

        <symbol id="phone" viewBox="0 0 10 16" >
            <path d="M8.5 0C9.32715 0 10 0.672848 10 1.5V14.5C10 15.3272 9.32715 16 8.5 16H1.5C0.672848 16 0 15.3272 0 14.5V1.5C0 0.672848 0.672848 0 1.5 0H8.5ZM1 13V14.5C1 14.7759 1.22412 15 1.5 15H8.5C8.77588 15 9 14.7759 9 14.5V13H1ZM1.64648 13.7393C1.84175 13.5569 2.15825 13.5569 2.35352 13.7393C2.54864 13.9216 2.54873 14.2171 2.35352 14.3994C2.15828 14.5816 1.84172 14.5816 1.64648 14.3994C1.45127 14.2171 1.45136 13.9216 1.64648 13.7393ZM1.5 1C1.22412 1 1 1.22412 1 1.5V12H9V1.5C9 1.22412 8.77588 1 8.5 1H1.5Z"/>
        </symbol>

        <symbol id="antenna" viewBox="0 0 70 70" >
            <path d="M67.3158 48.3385L48.8463 29.7337L50.8961 19.6373C51.4251 19.8438 51.9874 19.9517 52.5551 19.9558H52.5691C55.1772 19.9866 57.3164 17.8974 57.3474 15.2893C57.3783 12.6812 55.2889 10.542 52.6808 10.5111C50.0728 10.4803 47.9335 12.5695 47.9026 15.1776C47.896 15.7357 47.9884 16.2905 48.1755 16.8163L37.3255 18.1405L19.6271 0.35C19.41 0.128479 19.1137 0.00247917 18.8035 0C18.4972 0.00160417 18.2039 0.123521 17.9868 0.3395L14.6781 3.6295C14.2227 4.08508 14.2227 4.82358 14.6781 5.27917L16.4585 7.08517C9.56113 19.7681 11.8014 35.4741 21.9698 45.7228C22.0631 45.8121 22.1713 45.8843 22.2895 45.9363C22.216 46.3311 22.1776 46.7317 22.1751 47.1333V60.6667H8.17513C4.95513 60.6705 2.34559 63.28 2.3418 66.5V68.8333C2.3418 69.4776 2.86417 70 3.50846 70H57.1751C57.8194 70 58.3418 69.4776 58.3418 68.8333V66.5C58.338 63.28 55.7285 60.6705 52.5085 60.6667H38.5085V54.6688C40.7017 55.1288 42.9363 55.3633 45.1771 55.3688C50.5543 55.363 55.8459 54.0225 60.5771 51.4675L62.3668 53.2677C62.5839 53.4892 62.8803 53.6152 63.1905 53.6177C63.4967 53.6161 63.79 53.4941 64.0071 53.2782L67.3158 49.9882C67.7712 49.5326 67.7712 48.7941 67.3158 48.3385ZM50.9241 13.6348C51.8378 12.726 53.3152 12.7301 54.2239 13.6437C55.1327 14.5574 55.1287 16.0348 54.215 16.9435C53.7777 17.3785 53.1859 17.6226 52.569 17.6225H52.562C51.2734 17.6158 50.234 16.5658 50.2408 15.2771C50.244 14.6602 50.4913 14.0699 50.9287 13.6348H50.9241V13.6348ZM48.1778 21.301L46.8688 27.7445L44.2975 25.158L48.1778 21.301ZM46.8525 19.3282L42.6525 23.5037L39.4033 20.237L46.8525 19.3282ZM52.5085 63C54.4415 63 56.0085 64.567 56.0085 66.5V67.6667H4.67513V66.5C4.67513 64.567 6.24211 63 8.17513 63H52.5085ZM36.1751 58.3333V60.6667H24.5085V58.3333H36.1751ZM24.5085 56V47.1333C24.5085 44.303 27.1253 42 30.3418 42C33.5583 42 36.1751 44.303 36.1751 47.1333V56H24.5085ZM38.5085 52.29V47.1333C38.5085 43.0162 34.8451 39.6667 30.3418 39.6667C27.4301 39.622 24.7074 41.1041 23.1645 43.5738C14.2882 34.2249 12.2894 20.2875 18.18 8.82073L58.8715 49.7455C52.5881 52.9419 45.3852 53.8418 38.5085 52.29ZM63.2033 50.7943L61.5595 49.1412L18.7918 6.11567L17.141 4.46133L18.7918 2.81633L36.1495 20.272C36.1576 20.272 36.1623 20.2872 36.1705 20.293L64.8588 49.1493L63.2033 50.7943Z" fill="#212121"/>
<path d="M30.3527 44.3333H30.3422C28.4091 44.3304 26.8398 45.895 26.8369 47.8281C26.834 49.7611 28.3986 51.3304 30.3317 51.3333H30.3422C32.2752 51.3362 33.8445 49.7716 33.8474 47.8386C33.8503 45.9055 32.2857 44.3362 30.3527 44.3333ZM31.1693 48.6605C30.9497 48.8789 30.6521 49.0012 30.3422 49C29.6979 48.9966 29.1783 48.4716 29.1816 47.8273C29.1832 47.5189 29.3069 47.2237 29.5255 47.0062C29.7426 46.7902 30.0359 46.6683 30.3422 46.6667C30.9865 46.67 31.5061 47.195 31.5027 47.8393C31.5011 48.1477 31.3774 48.4429 31.1588 48.6605H31.1693Z" fill="#2196F3"/>
        </symbol>

        <symbol id="clock" viewBox="0 0 70 70" >
            <g clip-path="url(#clip0_22_433)">
<path d="M68.4614 33.4715C68.4576 14.9819 53.4656 -0.00373771 34.9754 6.99302e-07C16.4858 0.00373911 1.50017 14.9963 1.50391 33.4859C1.50711 48.0502 10.9252 60.9413 24.7995 65.3713C24.9319 65.413 25.0697 65.4343 25.2081 65.4338C25.4719 65.4333 25.7304 65.3628 25.9573 65.2287C26.2527 65.0541 26.4732 64.7764 26.5768 64.449L35.0315 37.6521C37.3429 37.6404 39.2068 35.7568 39.1945 33.4459C39.1827 31.1345 37.2997 29.2706 34.9883 29.2824C34.3666 29.285 33.753 29.4282 33.1944 29.7011L22.0251 18.5302C21.4707 17.9951 20.5879 18.0106 20.0528 18.5644C19.5305 19.1054 19.5305 19.962 20.0528 20.503L31.2162 31.6792C30.3596 33.4277 30.8493 35.5383 32.3895 36.7303L24.3338 62.2647C8.41354 56.4002 0.261689 38.7405 6.12618 22.8203C11.9907 6.90002 29.6503 -1.25183 45.5706 4.61266C61.4909 10.4771 69.6427 28.1374 63.7782 44.0571C60.913 51.8351 55.0261 58.1252 47.4548 61.4989L46.5842 57.3989C46.4251 56.6454 45.6844 56.1636 44.9308 56.3233C44.6932 56.3741 44.4726 56.4857 44.291 56.6475L35.8978 64.1409C35.322 64.653 35.2708 65.5347 35.7835 66.1105C35.9501 66.2974 36.1637 66.4362 36.403 66.5126L47.1188 69.9327C47.8521 70.1682 48.6377 69.765 48.8732 69.0312C48.948 68.7994 48.9603 68.5527 48.9101 68.3145L48.0545 64.2915C60.4452 59.0678 68.4902 46.918 68.4614 33.4715V33.4715ZM34.9829 32.0766C35.753 32.0766 36.3779 32.7014 36.3779 33.4715C36.3779 34.2422 35.753 34.8665 34.9829 34.8665C34.2123 34.8665 33.588 34.2422 33.588 33.4715C33.588 32.7014 34.2123 32.0766 34.9829 32.0766ZM39.5774 64.5916L44.3551 60.3298L45.6737 66.543L39.5774 64.5916Z" fill="#212121"/>
<path d="M33.5879 6.96729V9.7572C33.5879 10.5278 34.2122 11.1522 34.9828 11.1522C35.753 11.1522 36.3778 10.5278 36.3778 9.7572V6.96729C36.3778 6.19717 35.753 5.57233 34.9828 5.57233C34.2122 5.57233 33.5879 6.19717 33.5879 6.96729Z" fill="#2196F3"/>
<path d="M8.47894 32.0765C7.7083 32.0765 7.08398 32.7014 7.08398 33.4715C7.08398 34.2421 7.7083 34.8665 8.47894 34.8665H11.2689C12.0395 34.8665 12.6638 34.2421 12.6638 33.4715C12.6638 32.7014 12.0395 32.0765 11.2689 32.0765H8.47894Z" fill="#2196F3"/>
<path d="M61.4866 34.8665C62.2573 34.8665 62.8816 34.2421 62.8816 33.4715C62.8816 32.7014 62.2573 32.0765 61.4866 32.0765H58.6967C57.9266 32.0765 57.3018 32.7014 57.3018 33.4715C57.3018 34.2421 57.9266 34.8665 58.6967 34.8665H61.4866Z" fill="#2196F3"/>
</g>
        </symbol>

        <symbol id="laptop" viewBox="0 0 70 70" >
        <g clip-path="url(#clip0_22_443)">
<path d="M32.6494 32.7351H34.9815V43.2296H32.6494V32.7351Z" fill="#2196F3"/>
<path d="M41.9785 37.3993H44.3106V43.2296H41.9785V37.3993Z" fill="#2196F3"/>
<path d="M23.3213 40.8975H25.6534V43.2296H23.3213V40.8975Z" fill="#2196F3"/>
<path d="M16.3252 39.7314H18.6573V43.2295H16.3252V39.7314Z" fill="#2196F3"/>
<path d="M3.49817 61.8865H59.4689C61.4007 61.8865 62.967 60.3202 62.967 58.3883V53.7241C62.967 51.7923 61.4007 50.2259 59.4689 50.2259H58.3028V21.1469L64.9262 14.8725C66.4635 15.6303 68.3242 15.1702 69.3302 13.7816C70.3369 12.3935 70.1957 10.4821 68.9966 9.25684C67.7975 8.03157 65.8901 7.8488 64.4798 8.82412C63.0701 9.80001 62.569 11.6499 63.2933 13.2037L58.3028 17.9345V15.2443C58.3028 13.3124 56.7365 11.7461 54.8046 11.7461H8.16239C6.23054 11.7461 4.66422 13.3124 4.66422 15.2443V50.2259H3.49817C1.56632 50.2259 0 51.7923 0 53.7241V58.3883C0 60.3202 1.56632 61.8865 3.49817 61.8865ZM66.4652 10.58C67.1091 10.58 67.6313 11.1021 67.6313 11.7461C67.6313 12.39 67.1091 12.9121 66.4652 12.9121C65.8212 12.9121 65.2991 12.39 65.2991 11.7461C65.2991 11.1021 65.8212 10.58 66.4652 10.58ZM6.99634 15.2443C6.99634 14.6003 7.51844 14.0782 8.16239 14.0782H54.8046C55.4486 14.0782 55.9707 14.6003 55.9707 15.2443V20.1414L53.6386 22.3573V17.5764C53.6386 16.9324 53.1165 16.4103 52.4725 16.4103H10.4945C9.85055 16.4103 9.32845 16.9324 9.32845 17.5764V46.7278C9.32845 47.3717 9.85055 47.8938 10.4945 47.8938H52.4725C53.1165 47.8938 53.6386 47.3717 53.6386 46.7278V25.5651L55.9707 23.3554V50.2259H6.99634V15.2443ZM17.4908 30.403C15.9131 30.3984 14.5279 31.4495 14.1083 32.9703C13.6886 34.491 14.3383 36.104 15.6951 36.9091C17.0513 37.7142 18.7793 37.5121 19.9129 36.4149L23.9662 38.4487C24.4371 38.6844 25.0081 38.5739 25.3583 38.1805L33.9745 28.4871L42.4443 34.8338C42.8987 35.1743 43.5329 35.1378 43.9452 34.7478L51.3065 27.7748V45.5617H11.6606V18.7424H51.3065V24.5619L43.0564 32.3747L34.5154 25.9716C34.0303 25.6084 33.3476 25.6767 32.9445 26.1294L24.2099 35.9571L20.9446 34.3242C20.9685 34.1841 20.9833 34.0429 20.989 33.9012C20.989 31.9693 19.4227 30.403 17.4908 30.403ZM18.6569 33.9012C18.6569 34.5451 18.1348 35.0672 17.4908 35.0672C16.8469 35.0672 16.3248 34.5451 16.3248 33.9012C16.3248 33.2572 16.8469 32.7351 17.4908 32.7351C18.1348 32.7351 18.6569 33.2572 18.6569 33.9012ZM25.6532 52.5581H37.3138V53.7241C37.3138 54.3681 36.7917 54.8902 36.1477 54.8902H26.8193C26.1753 54.8902 25.6532 54.3681 25.6532 53.7241V52.5581ZM2.33211 53.7241C2.33211 53.0802 2.85422 52.5581 3.49817 52.5581H23.3211V53.7241C23.3211 55.656 24.8874 57.2223 26.8193 57.2223H36.1477C38.0796 57.2223 39.6459 55.656 39.6459 53.7241V52.5581H59.4689C60.1128 52.5581 60.6349 53.0802 60.6349 53.7241V58.3883C60.6349 59.0323 60.1128 59.5544 59.4689 59.5544H3.49817C2.85422 59.5544 2.33211 59.0323 2.33211 58.3883V53.7241Z" fill="#212121"/>
</g>
<defs>
<clipPath id="clip0_22_443">
<rect width="70" height="70" fill="white"/>
</clipPath>
</defs>
        </symbol>

        <symbol id="astronaft" viewBox="0 0 70 70" >
  <path d="M69.943 9.89637C69.8053 9.47513 69.4413 9.16724 69.0015 9.10298L64.8225 8.49512L62.9523 4.70809C62.5603 3.91005 61.2524 3.91005 60.8605 4.70809L58.9903 8.49512L54.8111 9.10312C54.3713 9.16724 54.0073 9.47418 53.8684 9.89651C53.732 10.3188 53.845 10.7831 54.1636 11.0924L57.1888 14.0407L56.4749 18.2034C56.4002 18.6409 56.5799 19.0831 56.9381 19.3445C57.3009 19.6082 57.7745 19.6407 58.1677 19.4331L61.9058 17.4672L65.6439 19.4331C65.8143 19.5229 66.0021 19.5672 66.1876 19.5672C66.4291 19.5672 66.6707 19.4925 66.8737 19.3443C67.233 19.0831 67.4127 18.6408 67.3369 18.2033L66.623 14.0405L69.6482 11.0923C69.9651 10.7819 70.0795 10.3187 69.943 9.89637ZM64.5553 12.7991C64.2812 13.0662 64.1551 13.4536 64.2205 13.8316L64.6382 16.2688L62.4496 15.1184C62.2792 15.0286 62.0926 14.9843 61.9058 14.9843C61.7192 14.9843 61.5337 15.0286 61.3621 15.1184L59.1733 16.2688L59.591 13.8316C59.6564 13.4536 59.5303 13.0675 59.2562 12.7991L57.484 11.0724L59.9317 10.7166C60.3121 10.6617 60.6399 10.4226 60.8103 10.0783L61.9046 7.86169L62.9989 10.0783C63.1693 10.4225 63.4971 10.6617 63.8775 10.7166L66.3252 11.0724L64.5553 12.7991Z" fill="#2196F3"/>
  <path d="M57.1674 44.8923H54.834V47.2257H57.1674V44.8923Z" fill="#2196F3"/>
  <path d="M57.1674 49.5591H54.834V51.8925H57.1674V49.5591Z" fill="#2196F3"/>
  <path d="M59.5004 47.2257H57.167V49.5591H59.5004V47.2257Z" fill="#2196F3"/>
  <path d="M54.8334 47.2257H52.5V49.5591H54.8334V47.2257Z" fill="#2196F3"/>
  <path d="M49.0004 57.7259H46.667V60.0593H49.0004V57.7259Z" fill="#2196F3"/>
  <path d="M49.0004 62.3926H46.667V64.726H49.0004V62.3926Z" fill="#2196F3"/>
  <path d="M51.3334 60.0593H49V62.3927H51.3334V60.0593Z" fill="#2196F3"/>
  <path d="M46.6664 60.0593H44.333V62.3927H46.6664V60.0593Z" fill="#2196F3"/>
  <path d="M35.0004 53.0592H32.667V55.3926H35.0004V53.0592Z" fill="#2196F3"/>
  <path d="M35.0004 57.7259H32.667V60.0593H35.0004V57.7259Z" fill="#2196F3"/>
  <path d="M37.3334 55.3925H35V57.7259H37.3334V55.3925Z" fill="#2196F3"/>
  <path d="M32.6664 55.3925H30.333V57.7259H32.6664V55.3925Z" fill="#2196F3"/>
  <path d="M12.8334 13.3918H10.5V15.7252H12.8334V13.3918Z" fill="#2196F3"/>
  <path d="M12.8334 18.0587H10.5V20.3921H12.8334V18.0587Z" fill="#2196F3"/>
  <path d="M15.1664 15.7252H12.833V18.0586H15.1664V15.7252Z" fill="#2196F3"/>
  <path d="M10.4994 15.7252H8.16602V18.0586H10.4994V15.7252Z" fill="#2196F3"/>
  <path d="M54.0635 30.9738C53.4347 30.1256 52.5119 29.5797 51.4642 29.4326C50.4118 29.2833 49.3734 29.5597 48.5334 30.2026L45.7952 32.3014L45.794 32.3026L41.6428 35.4025L38.6724 34.2194C43.9691 31.8429 47.6711 26.545 47.6711 20.3942C47.6711 12.0314 40.8401 5.22736 32.4436 5.22736C24.047 5.22736 17.2161 12.0314 17.2161 20.3942C17.2161 23.4253 18.1226 26.2439 19.6662 28.6158L13.6204 28.5633C13.6168 28.5633 13.6134 28.5633 13.6099 28.5633C13.5911 28.5633 13.5761 28.5726 13.5586 28.5738C13.4431 28.5785 13.3298 28.6018 13.2191 28.6415C13.1911 28.652 13.162 28.6579 13.1352 28.6706C13.1212 28.6765 13.1071 28.6776 13.0932 28.6846L6.02075 32.1764C6.01952 32.1764 6.01843 32.1764 6.01843 32.1775L1.8766 34.1692C1.83107 34.1891 1.78445 34.2159 1.73892 34.2462C0.0880191 35.3452 -0.474314 37.5036 0.429958 39.2676C0.911763 40.2056 1.73195 40.8963 2.73999 41.2124C3.12856 41.3337 3.52518 41.3933 3.91949 41.3933C4.55305 41.3933 5.18074 41.2381 5.75578 40.9313L8.79154 39.3167L13.7441 36.7593L16.7122 36.7418L4.80844 48.5884C4.80735 48.5896 4.80612 48.5896 4.80489 48.5907L1.87647 51.5074C1.18466 52.1958 0.8043 53.1092 0.8043 54.0835C0.8043 55.0565 1.18466 55.9723 1.87647 56.6619C2.587 57.3689 3.52149 57.7235 4.45598 57.7235C5.3917 57.7235 6.32495 57.3689 7.03782 56.6619L9.91251 53.7988L13.7206 50.9556L15.6912 52.9179L11.8375 56.7551C11.8364 56.7564 11.8352 56.7564 11.834 56.7574L8.90556 59.6741C8.21375 60.3625 7.8334 61.2759 7.8334 62.2502C7.8334 63.2233 8.21375 64.139 8.90556 64.8286C9.6161 65.5356 10.5518 65.8903 11.4863 65.8903C12.4208 65.8903 13.3565 65.5356 14.0681 64.8286L16.9977 61.912L21.6842 57.2453C21.6854 57.244 21.6854 57.2429 21.6865 57.2417L23.8951 55.0542L23.8869 55.046C23.9008 55.032 23.9207 55.0272 23.9347 55.0122L35.2353 42.6349L42.8281 43.7152C42.8829 43.7234 42.9377 43.7269 42.9925 43.7269C43.1338 43.7269 43.2702 43.6931 43.402 43.6429C43.4406 43.629 43.4743 43.6102 43.5106 43.5916C43.5526 43.5706 43.5968 43.559 43.6366 43.5322L50.6659 38.8655C50.6916 38.848 50.7055 38.8199 50.73 38.8013C50.758 38.7792 50.793 38.7699 50.8186 38.7453L53.5999 36.1401C55.0471 34.7841 55.2466 32.5628 54.0635 30.9738ZM4.66024 38.8722C4.28111 39.0752 3.85058 39.1159 3.43878 38.9854C3.03039 38.8582 2.69912 38.5793 2.50538 38.2025C2.15305 37.5165 2.35718 36.6811 2.97433 36.2296L5.84793 34.8471L6.53974 36.8689L6.83027 37.7182L4.66024 38.8722ZM12.3102 34.874L8.92333 36.6241L8.36456 34.9907L7.96328 33.8169L12.3967 31.6282L12.3102 34.874ZM45.3402 20.3919C45.3402 22.4009 44.8607 24.2957 44.03 25.9907L34.8832 21.8362C34.7875 20.5821 34.1366 19.4842 33.1589 18.8005L36.3614 8.16849C41.5626 9.82295 45.3402 14.6752 45.3402 20.3919ZM19.5519 20.3919C19.5519 13.3159 25.3363 7.55831 32.446 7.55831C32.9991 7.55831 33.5403 7.60493 34.0759 7.67261L30.9433 18.0713C30.9014 18.0701 30.8617 18.0585 30.8185 18.0585C28.5597 18.0585 26.7222 19.8901 26.7222 22.1419C26.7222 24.3936 28.5597 26.2254 30.8185 26.2254C32.3375 26.2254 33.65 25.3866 34.3582 24.1591L42.8073 27.9975C40.4564 31.1615 36.6938 33.2255 32.4459 33.2255C25.3363 33.2255 19.5519 27.4679 19.5519 20.3919ZM32.5814 22.1419C32.5814 23.1068 31.7903 23.8919 30.8185 23.8919C29.8467 23.8919 29.0556 23.1068 29.0556 22.1419C29.0556 21.1771 29.8467 20.3919 30.8185 20.3919C31.7903 20.3919 32.5814 21.1771 32.5814 22.1419ZM5.39183 55.0074C4.87503 55.5196 4.03843 55.5185 3.52286 55.0087C3.2743 54.7601 3.13785 54.4324 3.13785 54.0835C3.13785 53.7358 3.2743 53.4079 3.52286 53.1618L5.6274 51.0652L7.48941 52.9191L5.39183 55.0074ZM12.4222 63.1743C11.9054 63.6865 11.0677 63.6877 10.552 63.1755C10.3034 62.927 10.1669 62.5993 10.1669 62.2503C10.1669 61.9027 10.3034 61.5748 10.552 61.3287L12.6579 59.231L13.5388 60.1072L14.5211 61.0849L12.4222 63.1743ZM20.0383 55.5862C20.0371 55.5873 20.036 55.5873 20.0348 55.5885L16.1742 59.4385L15.2933 58.5623L14.311 57.5846L18.168 53.7451C18.168 53.7451 18.168 53.7451 18.168 53.744C18.1692 53.7428 18.1703 53.7428 18.1715 53.7417C18.259 53.6542 18.3139 53.5492 18.3676 53.4454C18.3828 53.415 18.4119 53.3893 18.4248 53.3579C18.461 53.2681 18.4667 53.1713 18.4808 53.0767C18.4878 53.0229 18.5112 52.9729 18.5112 52.9179C18.5112 52.8397 18.4831 52.764 18.4669 52.6869C18.4529 52.6169 18.4529 52.5456 18.426 52.4781C18.3817 52.3684 18.3058 52.2716 18.2265 52.177C18.2044 52.1513 18.1962 52.1186 18.1717 52.0942C18.1717 52.0942 18.1717 52.0942 18.1705 52.0942C18.1692 52.0931 18.1692 52.0906 18.1681 52.0895L14.6529 48.5895C14.6156 48.5521 14.5677 48.537 14.5257 48.5055C14.4639 48.4577 14.4045 48.4134 14.3356 48.3795C14.2691 48.3468 14.2014 48.327 14.1314 48.3082C14.0568 48.2872 13.9845 48.2709 13.9063 48.265C13.835 48.2604 13.7686 48.2674 13.6975 48.2756C13.6193 48.2849 13.5459 48.2954 13.47 48.3199C13.3964 48.3432 13.3312 48.3793 13.2635 48.4179C13.2203 48.4424 13.1714 48.4506 13.1305 48.4809L9.25133 51.3767L7.28077 49.4143L12.5285 44.1946L22.0674 53.576L20.0383 55.5862ZM34.9544 40.2372C34.9207 40.2325 34.8891 40.2454 34.8553 40.2431C34.7701 40.2384 34.6885 40.2443 34.6033 40.2582C34.5369 40.2699 34.4739 40.2827 34.4108 40.3049C34.3362 40.3306 34.2685 40.3656 34.1996 40.4075C34.1343 40.4472 34.0748 40.4892 34.0176 40.5417C33.9896 40.5661 33.9558 40.5779 33.9301 40.6058L23.6527 51.862L14.185 42.5506L20.3825 36.3859C20.8387 35.9309 20.841 35.1923 20.386 34.735C20.1562 34.5052 19.854 34.392 19.5519 34.3932V34.3921L14.6984 34.4212L14.7591 30.9049L21.5492 30.9633C24.3166 33.7937 28.176 35.5589 32.446 35.5589C33.4027 35.5589 34.3361 35.4598 35.2448 35.2905C35.3323 35.3605 35.4186 35.4317 35.5284 35.476L40.7995 37.5761L41.1331 39.235L41.5228 41.1717L34.9544 40.2372ZM43.7944 40.6268L43.1096 37.2189L46.2736 34.8564L47.102 35.9554L48.3445 37.605L43.7944 40.6268ZM52.0055 34.4341L50.1726 36.1514L48.1356 33.4471L49.9544 32.0529C50.2939 31.7917 50.7221 31.6854 51.1421 31.7403C51.5644 31.7997 51.9378 32.0203 52.1921 32.3621C52.6658 33.0003 52.5853 33.8905 52.0055 34.4341Z" fill="#212121"/>
  <path d="M29.7542 40.5651L25.0664 35.8984C24.6127 35.4446 23.8752 35.4446 23.4202 35.8984L18.7337 40.5651C18.5144 40.7856 18.3906 41.0819 18.3906 41.3922C18.3906 41.7026 18.5131 42.0001 18.7337 42.2194L23.4202 46.8861C23.6477 47.1124 23.9464 47.2256 24.2439 47.2256C24.5414 47.2256 24.84 47.1124 25.0664 46.8861L29.7542 42.2194C29.9735 42.0001 30.0983 41.7026 30.0983 41.3922C30.0983 41.0819 29.9746 40.7844 29.7542 40.5651ZM24.2439 44.4128L21.2105 41.3922L24.2439 38.3717L27.2784 41.3922L24.2439 44.4128Z" fill="#212121"/>
  <path d="M37.547 11.0923L36.9834 13.358C37.1386 13.3966 40.7845 14.3462 40.7845 18.0586H43.1179C43.1178 13.6461 39.4743 11.5718 37.547 11.0923Z" fill="#212121"/>
  <path d="M43.1176 20.3919H40.7842V22.7253H43.1176V20.3919Z" fill="#212121"/>
        </symbol>

        </svg>
